<?xml version="1.0" encoding="utf-8"?>
<!-- Generator: Adobe Illustrator 25.3.1, SVG Export Plug-In . SVG Version: 6.00 Build 0)  -->
<svg version="1.1" xmlns="http://www.w3.org/2000/svg" xmlns:xlink="http://www.w3.org/1999/xlink" x="0px" y="0px"
	 viewBox="0 0 841.89 595.28" style="enable-background:new 0 0 841.89 595.28;" xml:space="preserve">
<style type="text/css">
	.st0{fill:#FFFFFF;}
	width: 120px;
	height: 80px;
</style>
<g id="Analítica">
	<g>
		<g>
			<path class="st0" d="M309.08,371.5c0,1.16,0.07,2.3,0.25,3.21h-2.86l-0.29-1.69h-0.11c-0.94,1.05-2.86,2-5.36,2
				c-3.55,0-5.36-1.91-5.36-3.85c0-3.24,3.77-5.02,10.55-4.99v-0.28c0-1.11-0.4-3.13-3.99-3.1c-1.67,0-3.37,0.36-4.6,1l-0.73-1.64
				c1.45-0.69,3.59-1.16,5.8-1.16c5.4,0,6.71,2.8,6.71,5.49V371.5z M305.96,367.87c-3.48-0.06-7.43,0.42-7.43,3.02
				c0,1.61,1.38,2.33,2.97,2.33c2.32,0,3.81-1.11,4.31-2.24c0.11-0.25,0.14-0.53,0.14-0.78V367.87z"/>
			<path class="st0" d="M332.31,364.94c0-1.41-0.04-2.52-0.14-3.63h2.83l0.18,2.19h0.07c0.87-1.25,2.9-2.49,5.8-2.49
				c2.43,0,6.2,1.11,6.2,5.71v8.01h-3.19v-7.73c0-2.16-1.05-3.99-4.06-3.99c-2.07,0-3.7,1.14-4.28,2.49
				c-0.14,0.3-0.22,0.75-0.22,1.14v8.09h-3.19V364.94z"/>
			<path class="st0" d="M382.9,371.5c0,1.16,0.07,2.3,0.25,3.21h-2.86l-0.29-1.69h-0.11c-0.94,1.05-2.86,2-5.36,2
				c-3.55,0-5.36-1.91-5.36-3.85c0-3.24,3.77-5.02,10.55-4.99v-0.28c0-1.11-0.4-3.13-3.99-3.1c-1.67,0-3.37,0.36-4.6,1l-0.73-1.64
				c1.45-0.69,3.59-1.16,5.8-1.16c5.4,0,6.71,2.8,6.71,5.49V371.5z M379.78,367.87c-3.48-0.06-7.43,0.42-7.43,3.02
				c0,1.61,1.38,2.33,2.97,2.33c2.32,0,3.81-1.11,4.31-2.24c0.11-0.25,0.14-0.53,0.14-0.78V367.87z"/>
			<path class="st0" d="M406.12,355.04h3.19v19.68h-3.19V355.04z"/>
			<path class="st0" d="M439.24,355.51l-4.42,3.96h-2.25l3.19-3.96H439.24z M432.79,374.72v-13.41h3.19v13.41H432.79z"/>
			<path class="st0" d="M463.23,358.09v3.21h4.57v1.86h-4.57v7.21c0,1.66,0.62,2.6,2.39,2.6c0.87,0,1.38-0.06,1.85-0.17l0.14,1.86
				c-0.62,0.17-1.6,0.33-2.83,0.33c-1.49,0-2.68-0.39-3.44-1.02c-0.87-0.75-1.23-1.94-1.23-3.52v-7.29h-2.72v-1.86h2.72v-2.47
				L463.23,358.09z"/>
			<path class="st0" d="M491.02,359.03c-1.16,0-1.92-0.69-1.92-1.5c0-0.86,0.8-1.52,1.99-1.52c1.16,0,1.96,0.67,1.96,1.52
				c0,0.8-0.76,1.5-1.99,1.5H491.02z M489.5,374.72v-13.41h3.19v13.41H489.5z"/>
			<path class="st0" d="M528.6,374.22c-0.83,0.3-2.68,0.78-5.04,0.78c-5.29,0-8.73-2.74-8.73-6.84c0-4.13,3.7-7.15,9.42-7.15
				c1.88,0,3.55,0.36,4.42,0.72l-0.72,1.86c-0.76-0.3-1.96-0.64-3.7-0.64c-4.02,0-6.2,2.3-6.2,5.07c0,3.1,2.61,5.02,6.09,5.02
				c1.81,0,3.01-0.33,3.91-0.64L528.6,374.22z"/>
			<path class="st0" d="M562.81,371.5c0,1.16,0.07,2.3,0.25,3.21h-2.86l-0.29-1.69h-0.11c-0.94,1.05-2.86,2-5.36,2
				c-3.55,0-5.36-1.91-5.36-3.85c0-3.24,3.77-5.02,10.55-4.99v-0.28c0-1.11-0.4-3.13-3.99-3.1c-1.67,0-3.37,0.36-4.6,1l-0.72-1.64
				c1.45-0.69,3.59-1.16,5.8-1.16c5.4,0,6.7,2.8,6.7,5.49V371.5z M559.7,367.87c-3.48-0.06-7.43,0.42-7.43,3.02
				c0,1.61,1.38,2.33,2.97,2.33c2.32,0,3.81-1.11,4.31-2.24c0.11-0.25,0.14-0.53,0.14-0.78V367.87z"/>
		</g>
	</g>
</g>
<g id="R">
	<path class="st0" d="M525.57,284.68c0.89,0,3.88-0.24,3.88-0.24c8.89-1.38,16.52-6.57,21.14-13.87c3.03-4.75,4.78-10.37,4.78-16.42
		c0-5.59-1.5-10.84-4.12-15.34c-4.62-7.99-12.75-13.69-22.27-15c0,0-2.23-0.3-4.26-0.3c-2.03,0-95.5,0-95.5,0v14.9h94.53h2.18
		c0.7,0.02,1.5,0.17,1.5,0.17c7.55,1.24,13.31,8.19,13.31,16.1c0,7.9-5.76,14.46-13.31,15.7c0,0-1.04,0.2-2.18,0.2h-0.82h-72.73
		v14.24v0.23l87.22,47.51h0.42h15.75l-87.88-47.87C488.77,284.68,524.94,284.68,525.57,284.68z"/>
</g>
<g id="E">
	<g>
		<path class="st0" d="M306.95,295.2h0.01c-1.66-3.4-2.84-7.08-3.46-10.94h-15.29c0.42,3.48,1.09,6.85,2.12,10.09h-0.03
			c0.08,0.25,0.17,0.5,0.25,0.75c0.01,0.03,0.02,0.06,0.03,0.09h0c3.87,11.68,11.55,21.6,21.59,28.29
			c8.66,5.77,19.06,9.13,30.24,9.13c1.19,0,71.68,0,71.68,0v-15c0,0-69.78,0-71.64,0C326.79,317.62,313.27,308.46,306.95,295.2z"/>
		<path class="st0" d="M305.01,265.47c0.04-0.1,0.07-0.2,0.11-0.31c4.87-14.02,17.54-25.04,32.75-26.81c3.14-0.06,76.23,0,76.23,0
			v-14.69c0,0-69.4-0.23-71.68-0.23c-12.34,0-23.72,4.09-32.86,11c-13.2,9.96-21.74,25.78-21.74,43.59c0,0.09,0.01,0.18,0.01,0.27
			h0.08h15.05l0-0.01h111.15v-8.14H303.74c0.2-1,0.45-1.98,0.73-2.95C304.64,266.62,304.81,266.04,305.01,265.47z"/>
	</g>
</g>
</svg>
