<?xml version="1.0" encoding="utf-8"?>
<!-- Generator: Adobe Illustrator 25.3.1, SVG Export Plug-In . SVG Version: 6.00 Build 0)  -->
<svg version="1.1" id="Layer_1" xmlns="http://www.w3.org/2000/svg" xmlns:xlink="http://www.w3.org/1999/xlink" x="0px" y="0px"
	 viewBox="0 0 120 80" style="enable-background:new 0 0 120 80;" xml:space="preserve">
<style type="text/css">
	.st0{fill:#FFFFFF;}
</style>
<g>
	<g>
		<path class="st0" d="M13.29,69.59c0,0.47,0.03,0.93,0.1,1.29h-1.15l-0.12-0.68h-0.04c-0.38,0.42-1.15,0.8-2.16,0.8
			c-1.43,0-2.16-0.77-2.16-1.55c0-1.31,1.52-2.02,4.25-2.01v-0.11c0-0.45-0.16-1.26-1.61-1.25c-0.67,0-1.36,0.15-1.85,0.4
			l-0.29-0.66c0.58-0.28,1.45-0.47,2.34-0.47c2.18,0,2.7,1.13,2.7,2.21V69.59z M12.03,68.13c-1.4-0.02-2.99,0.17-2.99,1.22
			c0,0.65,0.55,0.94,1.2,0.94c0.93,0,1.53-0.45,1.74-0.9c0.04-0.1,0.06-0.21,0.06-0.31V68.13z"/>
		<path class="st0" d="M22.64,66.94c0-0.57-0.01-1.02-0.06-1.46h1.14l0.07,0.88h0.03c0.35-0.5,1.17-1,2.34-1
			c0.98,0,2.5,0.45,2.5,2.3v3.23h-1.28v-3.11c0-0.87-0.42-1.61-1.64-1.61c-0.83,0-1.49,0.46-1.72,1c-0.06,0.12-0.09,0.3-0.09,0.46
			v3.26h-1.28V66.94z"/>
		<path class="st0" d="M43.02,69.59c0,0.47,0.03,0.93,0.1,1.29h-1.15l-0.12-0.68h-0.04c-0.38,0.42-1.15,0.8-2.16,0.8
			c-1.43,0-2.16-0.77-2.16-1.55c0-1.31,1.52-2.02,4.25-2.01v-0.11c0-0.45-0.16-1.26-1.61-1.25c-0.67,0-1.36,0.15-1.85,0.4
			l-0.29-0.66c0.58-0.28,1.45-0.47,2.34-0.47c2.18,0,2.7,1.13,2.7,2.21V69.59z M41.76,68.13c-1.4-0.02-2.99,0.17-2.99,1.22
			c0,0.65,0.55,0.94,1.2,0.94c0.93,0,1.53-0.45,1.74-0.9c0.04-0.1,0.06-0.21,0.06-0.31V68.13z"/>
		<path class="st0" d="M52.38,62.96h1.28v7.93h-1.28V62.96z"/>
		<path class="st0" d="M65.72,63.15l-1.78,1.6h-0.91l1.28-1.6H65.72z M63.12,70.88v-5.4h1.28v5.4H63.12z"/>
		<path class="st0" d="M75.38,64.19v1.29h1.84v0.75h-1.84v2.9c0,0.67,0.25,1.05,0.96,1.05c0.35,0,0.55-0.02,0.74-0.07l0.06,0.75
			C76.9,70.93,76.51,71,76.01,71c-0.6,0-1.08-0.16-1.39-0.41c-0.35-0.3-0.5-0.78-0.5-1.42v-2.94h-1.09v-0.75h1.09v-0.99L75.38,64.19
			z"/>
		<path class="st0" d="M86.58,64.57c-0.47,0-0.77-0.28-0.77-0.6c0-0.35,0.32-0.61,0.8-0.61c0.47,0,0.79,0.27,0.79,0.61
			c0,0.32-0.31,0.6-0.8,0.6H86.58z M85.96,70.88v-5.4h1.28v5.4H85.96z"/>
		<path class="st0" d="M101.72,70.68c-0.34,0.12-1.08,0.31-2.03,0.31c-2.13,0-3.52-1.1-3.52-2.76c0-1.66,1.49-2.88,3.8-2.88
			c0.76,0,1.43,0.15,1.78,0.29l-0.29,0.75c-0.31-0.12-0.79-0.26-1.49-0.26c-1.62,0-2.5,0.93-2.5,2.04c0,1.25,1.05,2.02,2.45,2.02
			c0.73,0,1.21-0.13,1.58-0.26L101.72,70.68z"/>
		<path class="st0" d="M115.5,69.59c0,0.47,0.03,0.93,0.1,1.29h-1.15l-0.12-0.68h-0.04c-0.38,0.42-1.15,0.8-2.16,0.8
			c-1.43,0-2.16-0.77-2.16-1.55c0-1.31,1.52-2.02,4.25-2.01v-0.11c0-0.45-0.16-1.26-1.61-1.25c-0.67,0-1.36,0.15-1.85,0.4
			l-0.29-0.66c0.58-0.28,1.45-0.47,2.34-0.47c2.18,0,2.7,1.13,2.7,2.21V69.59z M114.24,68.13c-1.4-0.02-2.99,0.17-2.99,1.22
			c0,0.65,0.55,0.94,1.2,0.94c0.93,0,1.53-0.45,1.74-0.9c0.04-0.1,0.06-0.21,0.06-0.31V68.13z"/>
	</g>
</g>
<path class="st0" d="M100.49,34.61c0.36,0,1.56-0.1,1.56-0.1c3.58-0.55,6.65-2.65,8.51-5.59c1.22-1.91,1.92-4.18,1.92-6.61
	c0-2.25-0.6-4.36-1.66-6.18c-1.86-3.22-5.13-5.52-8.97-6.04c0,0-0.9-0.12-1.72-0.12c-0.82,0-38.47,0-38.47,0v6h38.08h0.88
	c0.28,0.01,0.6,0.07,0.6,0.07c3.04,0.5,5.36,3.3,5.36,6.49c0,3.18-2.32,5.82-5.36,6.32c0,0-0.42,0.08-0.88,0.08h-0.33h-29.3v5.74
	v0.09l35.14,19.14h0.17h6.34l-35.4-19.28C85.67,34.61,100.24,34.61,100.49,34.61z"/>
<g>
	<path class="st0" d="M12.43,38.85L12.43,38.85c-0.66-1.37-1.14-2.85-1.39-4.41H4.88c0.17,1.4,0.44,2.76,0.85,4.07H5.72
		c0.03,0.1,0.07,0.2,0.1,0.3c0,0.01,0.01,0.02,0.01,0.04h0c1.56,4.7,4.65,8.7,8.7,11.4c3.49,2.33,7.68,3.68,12.18,3.68
		c0.48,0,28.88,0,28.88,0v-6.04c0,0-28.11,0-28.86,0C20.42,47.88,14.97,44.19,12.43,38.85z"/>
	<path class="st0" d="M11.64,26.87c0.01-0.04,0.03-0.08,0.04-0.12c1.96-5.65,7.06-10.09,13.19-10.8c1.27-0.02,30.71,0,30.71,0v-5.92
		c0,0-27.96-0.09-28.87-0.09c-4.97,0-9.56,1.65-13.24,4.43c-5.32,4.01-8.76,10.38-8.76,17.56c0,0.04,0,0.07,0,0.11h0.03h6.06l0,0
		h44.77v-3.28H11.14c0.08-0.4,0.18-0.8,0.29-1.19C11.5,27.34,11.57,27.1,11.64,26.87z"/>
</g>
</svg>
