<?xml version="1.0" encoding="utf-8"?>
<!-- Generator: Adobe Illustrator 25.3.1, SVG Export Plug-In . SVG Version: 6.00 Build 0)  -->
<svg version="1.1" xmlns="http://www.w3.org/2000/svg" xmlns:xlink="http://www.w3.org/1999/xlink" x="0px" y="0px"
	 viewBox="0 0 1122 1122" style="enable-background:new 0 0 1122 1122;" xml:space="preserve">
<style type="text/css">
	.st0{fill:#FFFFFF;}
	.st1{fill:#FFD559;}
	.st2{fill:#EBB044;}
</style>
<g id="Bg">
	<g>
		<g>
			<rect class="st0" width="1122" height="1122"/>
		</g>
	</g>
</g>
<g id="Object">
	<g id="XMLID_955_">
		<g id="XMLID_956_">
			<g id="XMLID_957_">
				<g id="XMLID_960_">
					<path class="st1" d="M561.06,306.98v-9.65c0-15.67-13.04-28.38-29.13-28.38H228.24c-16.09,0-29.13,12.71-29.13,28.38v511.72
						H923V335.36c0-15.67-13.04-28.38-29.13-28.38H561.06z"/>
				</g>
				<g id="XMLID_959_">
					<rect x="231.25" y="347.88" class="st0" width="666.38" height="466.37"/>
				</g>
				<g id="XMLID_958_">
					<path class="st2" d="M550.74,406.19l-10.75,29.03H228.24c-16.09,0-29.13,12.71-29.13,28.38V824.9
						c0,15.67,13.04,28.38,29.13,28.38h665.63c16.09,0,29.13-12.71,29.13-28.38V415.82c0-15.67-13.04-28.38-29.13-28.38H578.13
						C565.86,387.44,554.9,394.94,550.74,406.19z"/>
				</g>
			</g>
		</g>
	</g>
</g>
</svg>
